<?xml version="1.0" encoding="UTF-8"?>
<svg version="1.1" viewBox="0 0 408 408" xmlns="http://www.w3.org/2000/svg" xmlns:xlink="http://www.w3.org/1999/xlink">
 <defs>
  <linearGradient id="linearGradient3841" x1="-207.42" x2="-201.55" y1="363.56" y2="120.11" gradientTransform="translate(563.3 309.23)" gradientUnits="userSpaceOnUse" xlink:href="#linearGradient3855-7"/>
  <linearGradient id="linearGradient3855-7">
   <stop stop-color="#eb8500" offset="0"/>
   <stop stop-color="#eaaa00" offset=".49606"/>
   <stop stop-color="#ebd300" offset="1"/>
  </linearGradient>
  <linearGradient id="linearGradient3901" x1="-240.69" x2="-206.83" y1="17.682" y2="374.18" gradientTransform="translate(563.3 309.23)" gradientUnits="userSpaceOnUse" xlink:href="#linearGradient3855-7"/>
 </defs>
 <g transform="translate(-155.7 -327.57)">
  <ellipse transform="matrix(.69533 0 0 .66653 97.761 224.12)" cx="377.14" cy="505.22" rx="231.43" ry="241.43" fill-opacity="0" stroke="#ced6eb" stroke-width="41.367"/>
  <path d="m323.47 328.78c-0.0747 0.49293 0.16258-0.27294 0 0zm0.64018-0.99152c-0.12611 3.9264 0.41432 7.8328 0.59375 11.75 0.87189 9.4434 1.7287 18.895 3.1503 28.275 0.95501 7.3359 2.3175 14.619 3.0294 21.986 0.30715 3.7557 0.0942 7.5233-0.20061 11.272-0.35327 5.5519-0.89684 11.115-2.1202 16.55-1.3966 5.5817-4.0989 10.698-6.2244 16.015-5.6309 13.393-11.002 26.893-16.389 40.385-3.3268 8.5555-6.7752 17.065-9.9674 25.672-1.5474 4.2476-3.097 8.5-4.4335 12.819-1.2598 4.2473-2.1649 8.5976-2.8179 12.977-0.71259 5.5601-0.98992 11.173-0.82615 16.776 0.10892 5.4099 0.56626 10.807 1.2022 16.179 0.82831 7.7904 1.9418 15.552 3.3575 23.258 0.77254 4.0967 1.7157 8.1619 2.7652 12.196 1.6495 6.2586 3.8282 12.378 6.5941 18.232 3.203 6.7744 6.9001 13.303 10.682 19.768 3.2623 5.5629 6.6372 11.059 10.188 16.443 3.5691 5.3766 7.2678 10.674 11.218 15.779 3.3523 4.2766 6.9444 8.4 11.038 11.986 3.2597 2.7892 6.8391 5.263 10.835 6.8724 1.7558 0.78382 3.7343-0.20046 4.9819-1.4703 3.7046-3.641 7.0778-7.5993 10.48-11.52 6.2084-7.2676 12.152-14.765 17.676-22.568 4.7267-6.6521 9.2407-13.46 13.334-20.522 4.665-7.9925 8.8607-16.259 12.61-24.719 3.7714-8.7474 7.031-17.734 9.3419-26.983 1.6461-6.4249 2.9423-12.935 4.1481-19.455 1.736-10.665 3.1497-21.401 3.6613-32.201 0.25079-6.0528 0.10194-12.128-0.5-18.156-0.75581-6.3131-2.0634-12.545-3.4381-18.748-1.1885-5.344-2.3854-10.689-3.9179-15.947-1.7418-6.0152-3.6049-12.011-6.004-17.801-1.8628-4.4259-3.8645-8.7925-6.0847-13.051-2.9831-5.7586-6.1784-11.404-9.3531-17.059-4.3931-7.6885-8.9743-15.284-14.09-22.517-3.521-4.9721-7.2235-9.8146-11.155-14.47-7.8529-9.3286-16.259-18.169-24.468-27.181-7.0886-7.7096-14.254-15.349-21.399-23.006-2.4574-2.6152-4.9148-5.2303-7.3722-7.8455h-0.0625l-0.0625 0.0312z" fill="url(#linearGradient3901)"/>
  <path d="m360.7 427.76c-0.91263 0.92996-0.93863 2.3278-1.3581 3.4992-2.9339 10.962-5.3547 22.051-8.0502 33.072-2.899 12.041-5.6448 24.121-8.7873 36.102-1.4002 5.1905-3.3306 10.22-5.5308 15.12-3.6773 8.8205-7.8337 17.45-11.033 26.463-1.9495 5.5777-3.3589 11.37-3.8031 17.273-0.41799 4.7227-0.20786 9.4682 0.0831 14.192 0.28276 5.0026 0.50344 10.008 0.68023 15.015 0.2151 4.3865 0.54807 8.7893 1.5804 13.071 1.2056 4.7106 2.4386 9.4205 3.3785 14.193 0.61139 3.0245 1.125 6.0893 2.184 8.9989 1.2406 2.7999 2.4864 5.6146 3.23 8.5947 0.64561 2.173 1.2635 4.4296 2.6755 6.2502 2.2513 3.8469 3.5174 8.1744 5.7336 12.041 2.4681 4.7172 5.0216 9.4079 8.0202 13.813 1.5054 2.0791 4.7349 6.4525 6.5695 8.2684 1.2011 0.61056 4.1628-3.997 4.7994-4.9658 7.2254-9.3758 11.023-17.205 17.666-27.011 3.195-4.677 6.0109-9.6005 8.7933-14.53 3.809-6.9034 7.3656-13.952 10.519-21.179 1.5271-3.5236 2.8787-7.12 4.0208-10.787 1.5052-4.7941 2.465-9.7354 3.5554-14.635 1.2106-6.1115 2.4549-12.223 3.2723-18.402 0.78091-5.3959 1.3738-10.846 1.1305-16.306-0.0942-3.8325-0.38045-7.6597-0.75428-11.474-0.78915-7.4594-1.7534-14.924-3.5408-22.218-1.1069-4.632-2.608-9.1533-4.0004-13.704-1.6617-5.2316-3.396-10.443-5.3028-15.591-2.603-6.6237-5.8881-12.962-9.5622-19.052-3.4725-5.8603-7.16-11.594-10.986-17.229-3.2647-4.6801-6.5874-9.3243-10.184-13.758-1.2933-1.6286-2.6174-3.2423-3.9826-4.8065-0.24919-0.21381-0.69789-0.67506-1.0174-0.31853z" fill="url(#linearGradient3841)"/>
 </g>
</svg>
