<svg xmlns="http://www.w3.org/2000/svg" xmlns:xlink="http://www.w3.org/1999/xlink" width="1.8em" height="1.8em" viewBox="0 0 100 100"><circle stroke="none" fill="#878787" r="48%" cx="50%" cy="50%"></circle><g transform="translate(50 50) scale(0.69 0.69) rotate(0) translate(-50 -50)" style="fill:#e4e4e4"><svg fill="#e4e4e4" xmlns="http://www.w3.org/2000/svg" xmlns:xlink="http://www.w3.org/1999/xlink" version="1.1" x="0px" y="0px" viewBox="0 0 64 64" enable-background="new 0 0 64 64" xml:space="preserve"><g><path d="M4,34v14c0,0.55,0.45,1,1,1h6v-2V35v-2H5C4.45,33,4,33.45,4,34z"></path><path d="M59,33h-6v2v12v2h6c0.55,0,1-0.45,1-1V34C60,33.45,59.55,33,59,33z"></path><path d="M50,30h-2c-1.1,0-2,0.95-2,2.11V33h-6v-2c0-0.55-0.45-1-1-1h-2v-2c-1.54,0.64-3.23,1-5,1s-3.46-0.36-5-1v2h-2   c-0.55,0-1,0.45-1,1v2h-6v-0.89c0-1.16-0.9-2.11-2-2.11h-2c-1.1,0-2,0.95-2,2.11v17.78c0,1.16,0.9,2.11,2,2.11h2   c1.1,0,2-0.95,2-2.11V49h28v0.89c0,1.16,0.9,2.11,2,2.11h2c1.1,0,2-0.95,2-2.11V32.11C52,30.95,51.1,30,50,30z M20.05,17.05   c0.01,0.22,0.04,0.44,0.08,0.67c0,0.04,0,0.07,0.01,0.11c0.03,0.23,0.07,0.46,0.12,0.69c0.04,0.16,0.08,0.32,0.12,0.48   c0.05,0.2,0.1,0.39,0.16,0.57c0.1,0.34,0.22,0.68,0.36,1c0.03,0.07,0.06,0.14,0.09,0.22c0.06,0.13,0.12,0.27,0.18,0.4   c0.09,0.18,0.18,0.35,0.28,0.54c0.04,0.08,0.09,0.17,0.15,0.26c0.06,0.13,0.14,0.25,0.21,0.37c0.08,0.12,0.16,0.24,0.24,0.35   c0.22,0.33,0.46,0.64,0.71,0.95c0.1,0.13,0.21,0.25,0.32,0.37c0.03,0.04,0.07,0.07,0.1,0.11c0.11,0.12,0.22,0.24,0.33,0.35   c0.6,0.59,1.25,1.12,1.96,1.58c0.48,0.31,0.9901,0.59,1.53,0.83v0.02c1.52,0.69,3.21,1.08,5,1.08s3.48-0.39,5-1.08V26.9   c0.54-0.24,1.05-0.52,1.53-0.83c0.71-0.46,1.36-0.9901,1.96-1.58c0.11-0.11,0.22-0.23,0.33-0.35c0.03-0.04,0.07-0.07,0.1-0.11   c0.11-0.12,0.22-0.24,0.32-0.37c0.25-0.31,0.49-0.62,0.71-0.95c0.09-0.11,0.17-0.23,0.24-0.35s0.15-0.24,0.21-0.37   c0.06-0.09,0.11-0.18,0.15-0.26c0.1-0.19,0.19-0.36,0.28-0.54c0.06-0.13,0.12-0.27,0.18-0.4c0.03-0.08,0.06-0.15,0.09-0.22   c0.14-0.33,0.26-0.66,0.36-1c0.06-0.18,0.11-0.37,0.16-0.57c0.04-0.16,0.08-0.32,0.12-0.48c0.05-0.23,0.09-0.46,0.12-0.69   c0.01-0.04,0.01-0.0699,0.01-0.11c0.04-0.23,0.07-0.45,0.08-0.67c0.02-0.13,0.03-0.27,0.03-0.4C43.99,16.43,44,16.22,44,16   c0-2.07-0.52-4.02-1.45-5.73c-0.19-0.33-0.39-0.66-0.6-0.97c0.01-0.01,0.01-0.01,0-0.01c-0.22-0.32-0.45-0.63-0.69-0.92   c0,0,0.01-0.01,0-0.01c-0.5-0.59-1.03-1.12-1.62-1.62c0-0.01-0.01,0-0.01,0c-0.29-0.24-0.6-0.47-0.92-0.69c0-0.01,0-0.01-0.01,0   c-0.31-0.21-0.64-0.41-0.97-0.6C36.02,4.52,34.07,4,32,4s-4.02,0.52-5.73,1.45c-0.33,0.19-0.66,0.39-0.97,0.6   c-0.01-0.01-0.01-0.01-0.01,0c-0.32,0.22-0.63,0.45-0.92,0.69c0,0-0.01-0.01-0.01,0c-0.59,0.5-1.12,1.03-1.62,1.62   c-0.01,0,0,0.01,0,0.01c-0.24,0.29-0.47,0.6-0.69,0.92c-0.01,0-0.01,0,0,0.01c-0.21,0.31-0.41,0.64-0.6,0.97   C20.52,11.98,20,13.93,20,16c0,0.22,0.01,0.43,0.02,0.65C20.02,16.78,20.03,16.92,20.05,17.05z M35.92,13.39l-1.89,4.41   C34.63,18.34,35,19.13,35,20c0,1.65-1.35,3-3,3s-3-1.35-3-3c0-1.65,1.35-3,3-3c0.06,0,0.13,0,0.19,0.01l1.89-4.4   c0.22-0.51,0.81-0.75,1.31-0.53C35.9,12.3,36.14,12.89,35.92,13.39z M24.18,12.67C25.5,9.53,28.57,7.5,32,7.5s6.5,2.03,7.82,5.17   c0.22,0.51-0.02,1.1-0.53,1.31c-0.13,0.05-0.2599,0.08-0.39,0.08c-0.39,0-0.76-0.23-0.92-0.61C36.97,11.05,34.62,9.5,32,9.5   s-4.97,1.55-5.98,3.95c-0.21,0.5099-0.8,0.75-1.31,0.53C24.2,13.77,23.96,13.18,24.18,12.67z"></path><path d="M32.4,19.08h-0.01C32.27,19.03,32.14,19,32,19c-0.55,0-1,0.45-1,1s0.45,1,1,1s1-0.45,1-1C33,19.59,32.75,19.24,32.4,19.08z   "></path></g></svg></g></svg>