<?xml version="1.0" encoding="UTF-8"?>
<svg version="1.1" width="375.9375" height="240" viewBox="0 0 375.9375 240" xmlns="http://www.w3.org/2000/svg">
 <path d="m183.67 232.88c-0.82693-0.99638-1.2589-4.38-1.2867-10.078l-0.0418-8.5781-48.281-0.5004v2.9062 2.9062l-8.4056-0.26609c-4.6231-0.14635-8.7012 0.0295-9.0625 0.39086-0.36132 0.36132-1.4304 0.65695-2.3757 0.65695-2.1295 0-2.2594 2.4168-0.19211 3.5737 1.0438 0.58412 1.192 1.0612 0.46875 1.5082-0.58184 0.3596-1.0579 1.4817-1.0579 2.4936 0 2.6883-4.009 4.2847-7.1574 2.8502-2.3024-1.049-2.4333-1.4343-1.9304-5.6806 0.65768-5.553 0.37052-5.6933-12.475-6.095-4.8984-0.15319-9.2227-0.33398-9.6094-0.40177-0.95682-0.16773-0.76832-10.446 0.23438-12.78 0.55331-1.2876 0.82636 0.25428 0.87161 4.9219l0.06589 6.7969h7.0312 7.0312v-12.623c0-14.579 0.0086-14.564-8.8018-14.564h-5.175l-0.32797 6.3281-0.32796 6.3281-0.18362-6.7969-0.1836-6.7969h5.1562c2.8359 0 5.1562-0.42188 5.1562-0.9375 0-0.51563-0.44392-0.9375-0.98649-0.9375-0.60104 0-0.87577-1.9231-0.70312-4.9219 0.2616-4.5438 0.46339-4.9232 2.6271-4.9396 2.0478-0.0155 2.3438-0.42988 2.3438-3.2812 0-2.8633-0.31617-3.2999-2.5781-3.5602-1.418-0.16316-2.5781-0.6905-2.5781-1.1719s-0.63281-0.87523-1.4062-0.87523c-0.98214 0-1.4062-0.98959-1.4062-3.2812 0-1.8047 0.42188-3.2812 0.9375-3.2812s0.9375-0.35138 0.9375-0.78083c0-1.1685-3.3819-0.69176-5.078 0.71592-0.81646 0.67759-1.4845 1.9724-1.4845 2.8774 0 3.4739-2.2434 4.0269-12.828 3.162-9.6905-0.79179-10.036-0.89685-10.659-3.2431-0.3541-1.3336-1.3801-3.5485-2.28-4.9219-1.5865-2.4213-1.9132-2.4971-10.758-2.4971-7.6465 0-9.3728-0.27729-10.673-1.7144-0.85335-0.94295-1.5516-2.4195-1.5516-3.2812 0-1.1159-0.80941-1.5668-2.8125-1.5668-1.5469 0-2.8158-0.31641-2.8198-0.70313-0.02435-2.3403-14.108-5.2368-15.389-3.1648-0.35876 0.58049-1.893 1.0554-3.4095 1.0554-2.7449 0-2.7572-0.02509-2.7572-5.625s0.012295-5.625 2.7572-5.625c1.5164 0 3.0179 0.42187 3.3366 0.9375 1.525 2.4675 15.469-0.12967 15.469-2.8812 0-0.47787 1.2656-0.86884 2.8125-0.86884 1.731 0 2.8125-0.48489 2.8125-1.261 0-0.69352 0.7715-1.9592 1.7144-2.8125 1.5047-1.3617 4.7596-1.5516 26.604-1.5516 22.065 0 25.036-0.17688 26.176-1.5587 1.0031-1.2152 1.0284-1.6456 0.11479-1.9531-1.8408-0.61957-1.37-5.2768 0.71384-7.0611 1.2367-1.0589 3.4915-1.6146 6.5514-1.6146h4.6657l0.6051 3.7841c0.52226 3.2661 2.3984 5.5909 4.5117 5.5909 0.29171 0 0.53038-6.134 0.53038-13.631 0-15.547 1.0137-18.874 7.1841-23.58l3.4514-2.6324 34.995 0.32006c24.854 0.22731 34.995 0.02357 34.995-0.70312 0-1.2301 7.1643-1.3873 7.9144-0.1737 0.28876 0.46722 1.4395 0.61034 2.5572 0.31806 1.6118-0.4215 1.9086-0.20936 1.4347 1.0255-0.49339 1.2857 0.01 1.5441 2.8887 1.4829 1.9174-0.04071 2.9589-0.2868 2.3143-0.54688-2.1171-0.85427-1.2235-2.4201 1.1249-1.9711 1.403 0.26821 2.486-0.05407 2.7831-0.82821 0.26747-0.697 1.0807-1.2673 1.8072-1.2673 1.5388 0 3.7219-2.3875 4.0161-4.3922 0.11224-0.76477 0.85307-1.8824 1.6463-2.4835 0.95094-0.72071 1.5341-3.0091 1.712-6.718l0.2698-5.625 5.3906 0.10874c3.4005 0.0686 5.3954-0.27751 5.4034-0.9375 7e-3 -0.57543 0.26718-1.9955 0.5781-3.1556 0.53484-1.9958 0.29437-2.1093-4.4659-2.1081l-5.0312 0.0013 0.26663-14.767c0.14664-8.1218 0.44498-15.282 0.66298-15.911 0.42507-1.2268 15.023-1.04 16.247 0.20797 0.34959 0.35629 0.63562 2.822 0.63562 5.4794 0 4.6713 0.0932 4.8422 2.8094 5.1505 3.5663 0.40489 4.1897 1.4413 4.2074 6.9944l0.0143 4.5008 3.0783-2.3479c6.3882-4.8725 14.984-4.0433 20.865 2.0127 2.889 2.9748 3.2438 3.8948 3.2438 8.414 0 6.9203-3.191 12.467-8.309 14.442-2.0884 0.80612-2.1778 1.1628-1.5607 6.2287 0.36002 2.9555 0.98817 5.722 1.3959 6.1479 0.40771 0.4259 2.7975 0.85477 5.3107 0.95303 2.5132 0.09827 5.0676 0.49497 5.6765 0.88155 0.60891 0.38659 1.3721 0.27413 1.696-0.24991 0.88163-1.4265 4.8366-1.148 6.438 0.45346 1.7112 1.7112 18.662 1.9779 24.403 0.38391 3.1728-0.88096 3.8797-0.77653 5.4633 0.80706 1.6155 1.6155 1.701 2.2798 0.76492 5.939-0.5797 2.266-1.4796 5.2132-1.9998 6.5494-1.0783 2.7698-6.1689 5.5394-10.182 5.5394-1.8122 0-3.866 1.0865-6.1813 3.2701-3.6896 3.4798-8.121 5.1536-13.666 5.1621-4.779 8e-3 -5.5667 3.0846-1.7977 7.0228 1.4876 1.5544 2.8451 3.8808 3.0168 5.1699 0.2125 1.5954 0.98574 2.4394 2.4216 2.6433 1.9297 0.27407 2.1094 0.79701 2.1094 6.1406 0 3.2126-0.36801 6.2418-0.81779 6.7317-0.44978 0.48984-1.0847 5.2148-1.411 10.5-0.56725 9.1896-0.51106 9.6094 1.2865 9.6094 1.5987 0 1.8797-0.62153 1.8797-4.1577 0-2.2868 0.40305-5.2178 0.89566-6.5135 1.6471-4.3322 7.398-9.6328 13.39-12.342 10.849-4.9046 27.619-3.1937 36.649 3.7392 7.9549 6.1073 9.9237 11.957 7.2341 21.495-0.89135 3.1609-1.7932 5.5398-2.004 5.2863-0.21086-0.25346-1.8832 0.6831-3.7162 2.0812-6.5415 4.9894-11.828 6.6444-21.511 6.7344-10.482 0.0973-16.19-1.6365-23.431-7.117l-4.694-3.5528v3.8283c0 7.4764 5.0386 13.69 14.115 17.406 5.4836 2.2452 21.31 2.329 26.265 0.13919 4.5658-2.0177 9.974-6.9214 12.128-10.996 1.5363-2.9068 1.7894-3.0737 1.8251-1.2042 0.0268 1.4057-1.6929 3.8943-4.8804 7.0625-3.9868 3.9626-6.0796 5.2279-11.016 6.6598-3.3516 0.9723-6.4531 2.0769-6.8923 2.4547-0.43919 0.37781 2.9358 0.95977 7.5 1.2932 4.5642 0.33349 9.3532 0.69134 10.642 0.79523l2.3438 0.1889 0.2645 11.642c0.14547 6.403-0.0756 11.982-0.49114 12.397-0.8689 0.8689-26.968 1.2809-32.586 0.51437-2.0625-0.2814-5.3715-0.54215-7.3534-0.57945-2.8146-0.053-3.7136-0.48929-4.1069-1.9933-0.72938-2.7891-5.2122-2.1662-5.4199 0.75312-0.0826 1.1599-0.34907 2.3079-0.59226 2.5511-0.75843 0.75844-30.776 1.5649-31.92 0.85762-0.59641-0.3686-4.9146-0.70616-9.5959-0.75015l-8.5116-0.08-0.29377-3.0469-0.29378-3.0469h-24.316-24.316v7.7602c0 9.0136-1.3591 11.927-5.5634 11.927-1.4545 0-3.2048-0.675-3.8894-1.5zm6.6073-2.1884c0.55345-1.0342 0.97048-8.2854 0.97048-16.875v-15.062h-3.2812-3.2812v16.25c0 8.9375 0.28125 16.531 0.625 16.875 1.2465 1.2465 4.0189 0.58323 4.967-1.1884zm-80.358-4.2023c0.1289-0.47265-0.29297-1.0352-0.9375-1.25-0.64454-0.21484-1.1719 0.3125-1.1719 1.1719 0 1.5875 1.6807 1.6498 2.1094 0.0781zm0.70312-7.1094c0-2.7083-0.39063-3.75-1.4062-3.75s-1.4062 1.0417-1.4062 3.75 0.39063 3.75 1.4062 3.75 1.4062-1.0417 1.4062-3.75zm146.09-12.435 0.30619-12.75-3.5874-0.99617c-4.813-1.3365-8.7198-1.2661-9.1762 0.16524-0.20549 0.64454-0.56098 6.743-0.78997 13.552l-0.41636 12.38 5.7413 0.32026c3.1577 0.17615 6.1631 0.26579 6.6788 0.19919 0.55595-0.0718 1.0621-5.3102 1.2437-12.871zm15.886 12.846c-0.72437-0.72438-8.1783-0.76942-8.894-0.0537-0.31893 0.31891 1.6701 0.57986 4.4201 0.57986s4.7632-0.23677 4.4738-0.52614zm18.964-13.068v-13.594l-4.9219 0.0143c-2.707 7e-3 -5.4708 0.36252-6.1416 0.78805-0.85675 0.54343-1.3816 4.5846-1.7637 13.579l-0.54392 12.806h6.6855 6.6855v-13.594zm-14.235 9.5371 0.29665-2.5058h-9.906-9.906v2.3438c0 2.6579 0.94626 2.8407 6.9203 1.3364 3.1788-0.80044 4.6602-0.72076 7.212 0.38792 4.1072 1.7844 5.0182 1.52 5.3831-1.5622zm52.585 1.8183c1.1847-1.4274 1.9394-15.45 1.0372-19.272-0.45882-1.9436-1.0564-2.0744-10.562-2.3114l-10.075-0.25125-0.0536 5.2397c-0.0295 2.8818-0.27105 7.8491-0.53677 11.038l-0.48313 5.7987 3.5837 0.30401c11.276 0.95657 15.967 0.80666 17.09-0.54609zm-197.73-12.293v-13.359c0-0.38671-2.6367-0.70312-5.8594-0.70312h-5.8594l-0.26012 13.359-0.26011 13.359h6.1195 6.1195v-12.656zm175.14 10.547c0.24671-1.3023-0.34788-1.6406-2.8829-1.6406-3.6693 0-4.5284 0.56343-3.7907 2.4859 0.75874 1.9773 6.2712 1.2791 6.6737-0.84525zm33.923 0.70313c0-1.0417-1.0938-1.4062-4.2188-1.4062s-4.2188 0.36458-4.2188 1.4062 1.0938 1.4062 4.2188 1.4062 4.2188-0.36458 4.2188-1.4062zm-237.42-1.0596c1.2407-0.3325 2.1094-1.2924 2.1094-2.3309 0-1.3929-0.69273-1.7657-3.2812-1.7657-2.875 0-3.2812 0.29017-3.2812 2.3438 0 2.412 0.80752 2.7298 4.4531 1.7528zm14.297-1.7528c0-1.9792-0.4375-2.3438-2.8125-2.3438-2.1467 0-2.8125 0.42534-2.8125 1.7969 0 1.8628 1.1696 2.6896 3.9844 2.8166 1.1447 0.0517 1.6406-0.63439 1.6406-2.2697zm179.81-7.342 0.27499-7.3216-2.6187 0.30057c-2.5549 0.29324-2.6253 0.45863-2.8881 6.7862-0.27552 6.6354 0.49527 8.3287 3.5506 7.7999 1.0805-0.18699 1.4699-1.9392 1.6813-7.565zm-187.28-1.7986c0.0134-4.7695 0.27716-30.82 0.58618-57.891 0.61855-54.187 0.49843-53.146 6.4631-55.99 3.023-1.4415 4.4671-4.0097 2.2548-4.0097-2.0547 0-6.442 2.888-8.2547 5.4337-2.4526 3.4444-3.5559 7.6913-1.9981 7.6913 0.79042 0 0.86316 0.36916 0.2309 1.1719-0.50766 0.64453-1.1811 2.2562-1.4966 3.5815-0.40365 1.6957-0.98893 99.048-0.64918 107.98 0.0147 0.38672 0.65956 0.70313 1.433 0.70313 1.1469 0 1.4107-1.5994 1.4306-8.6719zm131.23 1.2194c0-4.1512-0.31641-7.5544-0.70313-7.5628-0.38671-8e-3 -11.355-0.27921-24.375-0.60184l-23.672-0.5866v7.6014 7.6014l10.078 0.26609c5.543 0.14635 16.512 0.39294 24.375 0.548l14.297 0.28189v-7.5475zm-59.062-0.98503v-7.5l-16.172-0.0252c-8.8945-0.0139-19.863-0.274-24.375-0.57813l-8.2031-0.55294v7.5729 7.5729l8.2031 0.31247c4.5117 0.17186 15.48 0.39922 24.375 0.50524l16.172 0.19283v-7.5zm82.5 4.5c0-1.5145-0.27723-1.7853-1.0433-1.0192-0.57381 0.57381-0.75986 1.5019-0.41341 2.0625 0.96974 1.5691 1.4567 1.2203 1.4567-1.0433zm12.188 0.68567c0-0.83868-0.54965-1.1659-1.4062-0.8372-0.77344 0.2968-1.4062 0.91637-1.4062 1.3768s0.63281 0.8372 1.4062 0.8372 1.4062-0.61958 1.4062-1.3768zm30-3.3107v-4.6875h-3.2634c-2.6991 0-3.3651 0.40528-3.8516 2.3438-0.32353 1.2891-0.32353 3.3984 0 4.6875 0.48653 1.9385 1.1526 2.3438 3.8516 2.3438h3.2634v-4.6875zm34.284 2.4179c1.1339-4.5178 0.25681-5.6774-4.5267-5.9849l-4.4447-0.28574v4.2701 4.2701h4.2009c3.6625 0 4.2739-0.29088 4.7705-2.2696zm-235.85-5.5894v-5.9841l-3.0469 0.25628c-1.6758 0.14095-3.2968 0.30252-3.6022 0.35904-0.30544 0.0565-0.47923 1.8958-0.38623 4.0872 0.31569 7.4384 0.22644 7.2656 3.7541 7.2656h3.2812v-5.984zm12.917 0.12466 0.35961-5.3906-7.1829 5.7e-4 -0.1904 11.346 6.6541-0.56534 0.3596-5.3906zm155.29 0.9375c0.43749-0.9375 0.65625-0.9375 1.0937 0 0.99618 2.1347 2.2656 1.2154 2.2656-1.6406v-2.8125h-9.8438-9.8438v2.8125 2.8125h7.8906c5.3958 0 8.0635-0.37051 8.4375-1.1719zm3.3594-7.3365c0-0.44428-0.63281-0.56494-1.4062-0.26815-0.77344 0.2968-1.4062 0.90313-1.4062 1.3474 0 0.44429 0.63281 0.56495 1.4062 0.26816 0.77344-0.29681 1.4062-0.90313 1.4062-1.3474zm29.822 0.30525c-0.21641-1.1237-1.194-1.6406-3.1028-1.6406s-2.8864 0.51693-3.1028 1.6406c-0.25427 1.3203 0.35148 1.6406 3.1028 1.6406s3.357-0.3203 3.1028-1.6406zm34.632 0.46875c-0.23236-0.69711-2.0364-1.1719-4.4531-1.1719s-4.2208 0.47476-4.4531 1.1719c-0.27889 0.8367 0.9948 1.1719 4.4531 1.1719s4.732-0.33518 4.4531-1.1719zm-80.391-0.13407c0-0.20265-0.63281-0.61128-1.4062-0.90808-0.77344-0.29679-1.4062-0.13099-1.4062 0.36845s0.63281 0.90808 1.4062 0.90808 1.4062-0.16581 1.4062-0.36845zm10.312-0.56905c1.0012-0.64702-0.0789-0.90878-3.75-0.90878-3.671 0-4.7512 0.26176-3.75 0.90878 0.77344 0.49984 2.4609 0.90878 3.75 0.90878s2.9766-0.40894 3.75-0.90878zm27-1.9226c1.0343-1.6562 2.0721-1.902 7.4912-1.7741 8.6515 0.20413 9.4892 0.10627 7.6967-0.89911-0.77344-0.43383-3.0704-1.0884-5.1045-1.4545-5.02-0.90362-11.657-4.4119-14.993-7.9248-1.9977-2.1039-3.6061-2.8999-5.8594-2.8999-3.095 0-3.1058 0.0161-3.1058 4.6094 0 2.8489-0.44758 4.7624-1.1719 5.0099-0.64453 0.22029 1.2539 0.70768 4.2188 1.0831 5.1797 0.65586 5.3906 0.78995 5.3906 3.4276 0 2.2251 0.40121 2.745 2.1182 2.745 1.165 0 2.6585-0.86514 3.3189-1.9226zm-196.69 0.0476c-1.8176-1.1746-2.8125-1.1746-2.8125 0 0 0.51562 0.94922 0.93104 2.1094 0.92315 1.7057-0.0116 1.8403-0.18827 0.70312-0.92315zm15.785-0.70313c-0.14846-0.90234 0.0608-2.168 0.46515-2.8125 0.53655-0.85542-0.16314-1.1719-2.591-1.1719-2.9293 0-3.3041 0.26604-3.1415 2.2299 0.15507 1.8737 0.44609 2.0665 1.8219 1.2074 0.90051-0.56239 1.9607-0.69915 2.3559-0.30391 0.39524 0.39523 0.098 1.1111-0.66049 1.5908-1.1462 0.72488-1.0921 0.87459 0.32046 0.88653 1.1003 9e-3 1.6044-0.56413 1.4296-1.6263zm123.9-1.1719v-2.8125h5.8042c4.953 0 5.5629-0.17641 4.1591-1.2029-1.2681-0.92725-1.5777-2.269-1.3511-5.8545 0.25998-4.1127 0.56696-4.7065 2.6496-5.1252 1.2955-0.26048 2.2975-1.0009 2.2266-1.6455-0.0709-0.64453-0.18169-1.8047-0.24614-2.5781-0.0645-0.77344-0.97858-1.4062-2.0314-1.4062-3.1509 0-5.506-2.9257-5.3003-6.5845l0.18322-3.2592-14.261-0.54277-0.59556 4.9589c-0.32756 2.7274-0.59924 6.747-0.60372 8.9325-0.0132 6.4472-1.8213 7.7451-10.789 7.7451-6.6485 0-7.7659-0.2498-9.3397-2.0878-0.98318-1.1483-1.8385-3.1522-1.9007-4.4531-0.0623-1.3009-0.1953-5.4239-0.29574-9.1622l-0.18262-6.7969h-5.1596c-8.6064 0-15.63 5.454-11.324 8.7936 0.82326 0.63853 1.4968 3.2549 1.7185 6.6751 0.20053 3.0938 1.0958 7.3117 1.9894 9.3733 1.5822 3.65 1.5743 3.7891-0.29959 5.3065-1.0584 0.85704-1.9244 2.2289-1.9244 3.0486 0 1.3224 2.6414 1.4904 23.438 1.4904h23.438v-2.8125zm-60.938 0.50173c0-0.7553-0.84375-1.8248-1.875-2.3767-2.2012-1.178-2.3742-2.5649-0.57569-4.6137 0.74452-0.8481 1.4909-4.448 1.748-8.431 0.32059-4.9666 0.88639-7.271 1.9819-8.0721 2.7621-2.0197 1.9026-5.5473-1.7796-7.3032-1.822-0.86888-4.184-3.0564-5.2488-4.8612l-1.9361-3.2814h-8.2779c-10.857 0-11.224-0.36674-11.224-11.202 0-5.8846 0.37241-8.5648 1.2967-9.3319 0.854-0.70876 7.372-1.148 19.093-1.2867l17.797-0.21054 2.8452-3.0469c2.3518-2.5184 3.5523-3.0523 6.9222-3.0781 2.5765-0.0197 4.8533-0.67884 6.1864-1.7909 2.2587-1.8843 2.7856-5.5642 1.0458-7.304-0.66503-0.66502-1.1042-5.3901-1.1719-12.609l-0.1083-11.546-5.9985-0.28272c-3.3437-0.15759-6.4348 0.15359-6.9844 0.70312-1.3494 1.3494-3.4063 1.2277-6.497-0.38445-3.7979-1.9811-66.599-3.0916-70.051-1.2388-3.8819 2.0831-4.5743 4.973-4.8748 20.345l-0.28141 14.396 5.1562 1.9808c8.1528 3.132 7.6872 2.1343 7.4269 15.914-0.21312 11.283-0.88456 15.269-2.7857 16.536-1.017 0.67802-1.8664 9.8898-1.2131 13.156 0.37933 1.8966 1.1153 2.7812 2.3141 2.7812 1.5024 0 1.7578 0.73785 1.7578 5.0781 0 3.1853-0.4368 5.2544-1.1719 5.551-0.64454 0.26007 1.2539 0.50617 4.2188 0.54687l5.3906 0.074v3.2812 3.2812h23.438c19.958 0 23.438-0.20387 23.438-1.3733zm10.312-0.97048c0-0.98214-0.98959-1.4062-3.2812-1.4062s-3.2812 0.42411-3.2812 1.4062 0.98959 1.4062 3.2812 1.4062 3.2812-0.42411 3.2812-1.4062zm86.682 0.52758c0.32135-0.51995-3.6756-0.99837-9.7903-1.1719-9.434-0.26768-12.268 0.17472-9.1577 1.4297 2.1302 0.85958 18.394 0.63831 18.948-0.25778zm-171.99-1.9339c0-0.51563-1.582-0.93104-3.5156-0.92315-2.615 0.0107-3.1554 0.24717-2.1094 0.92315 1.8477 1.1941 5.625 1.1941 5.625 0zm168.98-1.6316c-3.2226-0.18307-8.4961-0.18307-11.719 0-3.2226 0.18306-0.58593 0.33285 5.8594 0.33285s9.082-0.14979 5.8594-0.33285zm-171.09-1.8271c-0.90235-0.2358-2.3789-0.2358-3.2812 0-0.90235 0.23581-0.16407 0.42875 1.6406 0.42875s2.543-0.19294 1.6406-0.42875zm15.482-0.0137c-1.1531-0.22253-3.2624-0.22829-4.6875-0.0128-1.4251 0.21548-0.48164 0.39755 2.0965 0.40459 2.5781 7e-3 3.7441-0.16927 2.591-0.3918zm163.82-3.09c0-3.75 0-3.75-3.75-3.75-3.6482 0-3.75 0.0876-3.75 3.2246 0 3.0359 0.2058 3.2462 3.5156 3.5924 1.9336 0.20226 3.6211 0.43866 3.75 0.52535 0.12891 0.0867 0.23438-1.5299 0.23438-3.5924zm-23.187-0.23438c0.61825-4.0639 0.26375-4.4531-4.056-4.4531-3.6854 0-3.6947 9e-3 -3.6947 3.75 0 3.7318 0.0177 3.75 3.6436 3.75 3.3906 0 3.6758-0.21153 4.1071-3.0469zm13.812-0.23437c0-3.1644-0.1252-3.2817-3.5156-3.294-1.9336-7e-3 -4.409-0.25259-5.501-0.54567-1.5474-0.41531-2.0724-0.0506-2.38 1.6534-0.86078 4.7695-0.1151 5.4675 5.8403 5.4675h5.5563v-3.2812zm-149.53-1.9531c0-3.5663-0.10105-3.6802-3.5156-3.9628l-3.5156-0.29096v3.7443c0 3.3668 0.25991 3.783 2.5781 4.1274 4.0599 0.60333 4.4531 0.28389 4.4531-3.618zm-22.544-0.39063c-0.043-3.2373-0.10267-3.2851-4.4531-3.567l-4.4096-0.28574v3.8527 3.8527l4.4531-0.28574c4.4194-0.28358 4.4528-0.31056 4.4096-3.567zm4.2623 0c0-2.7083-0.39063-3.75-1.4062-3.75s-1.4062 1.0417-1.4062 3.75 0.39063 3.75 1.4062 3.75 1.4062-1.0417 1.4062-3.75zm9.375 0c0-2.7083-0.39063-3.75-1.4062-3.75s-1.4062 1.0417-1.4062 3.75 0.39063 3.75 1.4062 3.75 1.4062-1.0417 1.4062-3.75zm68.401-4.5602c0.51396-1.7921 0.50267-2.9398-0.0289-2.9398-0.47962 0-0.87781 0.52734-0.88485 1.1719-7e-3 0.64454-0.28027 2.2266-0.60717 3.5156-0.84738 3.3414 0.50813 1.7838 1.521-1.7477zm9.9806 1.2022c-0.31298-0.8156-0.56905-2.0812-0.56905-2.8125 0-0.89222-1.0697-1.3296-3.2518-1.3296-3.8045 0-3.7205 1.5177 0.21578 3.8999 3.323 2.011 4.3093 2.0773 3.6051 0.24219zm37.301-8.0662c0.3474-4.1656 0.49702-7.7084 0.3325-7.8729s-4.6087-0.51416-9.876-0.77698l-9.5769-0.47785 0.0128 6.2916c0.0214 10.522-0.0823 10.395 8.7589 10.708 4.199 0.14888 8.1031 0.14263 8.6758-0.0139 0.58348-0.15946 1.319-3.6143 1.6729-7.8584zm47.442 1.6349v-6.9768l-8.9062-2.5275-0.28807 3.5486c-0.30609 3.7707-0.21584 3.7142-7.9151 4.9521-3.261 0.5243-3.5156 0.79572-3.5156 3.7474 0 2.9868 0.21584 3.2048 3.5156 3.5499 1.9336 0.20227 6.5742 0.43866 10.312 0.52535l6.7969 0.15759v-6.9768zm11.479 3.6955c-0.38628-2.0207-0.9498-2.3438-4.0887-2.3438-3.2584 0-3.6407 0.2461-3.6407 2.3438 0 2.1417 0.35242 2.3438 4.0888 2.3438 3.8558 0 4.0632-0.13353 3.6407-2.3438zm-183.67-2.7464c0.28354-2.0989 0.21076-4.1242-0.16173-4.5006-0.37248-0.37646-2.2466-0.25116-4.1646 0.27845-3.1221 0.86204-3.4874 1.2857-3.4874 4.0438 0 3.7999 0.04856 3.847 4.0455 3.9283 3.109 0.0632 3.2755-0.10247 3.7682-3.75zm13.749-3.3474c0-6.513-0.21591-7.5017-1.6406-7.5128-0.90235-7e-3 -2.5898-0.26718-3.75-0.5781-2.068-0.55421-2.1094-0.40697-2.1094 7.5128v8.0781h3.75 3.75v-7.5zm209.59 4.1799c5.8935-1.6366 12.018-5.9787 14.134-10.021 2.1832-4.1703 2.0831-10.877-0.22169-14.858-1.7954-3.1008-9.7935-9.3108-11.969-9.2927-0.58627 5e-3 0.62157 1.0218 2.6841 2.2597 14.2 8.5231 11.077 25.317-5.6692 30.489-10.669 3.2952-20.278 2.1018-29.018-3.604-3.9954-2.6084-7.9688-9.1497-7.9688-13.119 0-3.9207 3.8018-10.436 7.7651-13.307 2.0714-1.5006 3.3139-2.7283 2.761-2.7283-1.9392 0-8.9466 6.1268-10.722 9.375-1.3087 2.3937-1.6956 4.5943-1.4304 8.1355 0.49077 6.5524 3.705 10.611 11.404 14.402 9.4352 4.6449 17.391 5.2835 28.251 2.2676zm-137.4-1.3674c0-0.51563-0.73828-0.93104-1.6406-0.92315-1.4021 0.0123-1.4362 0.1465-0.23437 0.92315 1.7693 1.1434 1.875 1.1434 1.875 0zm-6.3867-0.64042c-0.67676-0.27081-1.4854-0.23751-1.7969 0.074-0.31152 0.31153 0.2422 0.5331 1.2305 0.4924 1.0921-0.045 1.3143-0.26713 0.56641-0.5664zm133.18-0.0212c-1.1602-0.22347-3.0586-0.22347-4.2188 0-1.1602 0.22345-0.21093 0.40628 2.1094 0.40628s3.2695-0.18283 2.1094-0.40628zm13.515-2.9215c4.5821-2.3459 7.7214-6.3744 8.4458-10.838 0.58013-3.575-0.97449-9.2304-2.9993-10.911-1.0501-0.87149-1.0166-0.47168 0.15737 1.8817 3.5844 7.1852-2.129 16.075-12.087 18.808-2.4533 0.67316-3.5156 1.4905-3.5156 2.7048 0 1.4804 0.45478 1.6367 3.0469 1.0471 1.6758-0.3812 4.8043-1.5928 6.9523-2.6926zm-46.338 1.9825c-1.1662-0.22424-2.8537-0.21573-3.75 0.0189-0.89633 0.23465 0.0579 0.41812 2.1203 0.40772 2.0625-0.0104 2.7959-0.2024 1.6297-0.42664zm25.442-0.77868c0.33924-0.88405-0.0753-1.6401-1.0716-1.9545-11.63-3.67-17.062-11.002-13.848-18.693 1.6491-3.9468 1.0805-4.243-0.87736-0.45701-2.1316 4.1221-1.8584 11.437 0.54113 14.488 2.1953 2.7909 10.772 8.0366 13.163 8.0502 0.84718 5e-3 1.7893-0.63998 2.0936-1.4329zm-58.395-25.54c0.11298-14.048-0.0703-25.818-0.40726-26.155-0.33698-0.33698-0.61268 11.34-0.61268 25.95s0.18327 26.379 0.40727 26.155c0.224-0.224 0.4997-11.901 0.61267-25.95zm4.6051-0.26074c0-16.418-0.33554-26.098-0.89269-25.754-1.2532 0.77451-1.311 52.059-0.0587 52.059 0.62089 0 0.95137-9.1377 0.95137-26.305zm60.669 24.196c1.0592 2.9248 2.1431 0.67254 2.1431-4.4531v-5.625h-3.2812-3.2812v5.6329c0 5.4922 0.0499 5.6035 1.9975 4.4531 1.5958-0.94254 2.0828-0.94414 2.4219-7e-3zm-224.31-25.711c0.38556-17.11 0.25619-25.665-0.3942-26.067-0.65709-0.4061-0.96812 7.903-0.96812 25.863 0 14.554 0.17739 26.284 0.3942 26.067 0.21681-0.21681 0.65246-11.855 0.96812-25.863zm4.9806-0.61715c0.16429-17.1-0.0753-25.938-0.70312-25.938-0.55462 0-0.96404 2.8385-0.98037 6.7969-0.01537 3.7383-0.2811 15.604-0.59041 26.369-0.47126 16.401-0.35282 19.502 0.73117 19.141 1.05-0.34967 1.3405-5.3141 1.5427-26.369zm188.48 24.921c-0.21729-1.1466-1.3672-1.7282-3.8188-1.9316-3.0112-0.24977-3.5078-0.0175-3.5078 1.6406 0 1.6343 0.58771 1.9316 3.8187 1.9316 3.1303 0 3.7627-0.29575 3.5078-1.6406zm-97.327-0.70312c0-0.875-0.88541-1.4062-2.3438-1.4062-2.4517 0-3.1885 1.3779-1.1719 2.1916 2.2328 0.90093 3.5156 0.61435 3.5156-0.78536zm76.875-1.4062c0-3.1002-1.2026-3.5058-5.1121-1.7245-1.3133 0.59838-2.3879 1.864-2.3879 2.8125 0 1.3869 0.73407 1.7245 3.75 1.7245 3.5417 0 3.75-0.15625 3.75-2.8125zm45-1.875v-3.75h-6.1719c-4.4927 0-6.0665 0.31613-5.7846 1.1619 0.38074 1.1422 9.5016 6.3381 11.126 6.3381 0.45675 0 0.83045-1.6875 0.83045-3.75zm15.699 2.308c3.6699-1.5334 6.8011-3.9577 6.8011-5.2658 0-0.43571-2.7422-0.7922-6.0938-0.7922h-6.0938v3.75c0 4.1803 0.44701 4.3718 5.3864 2.308zm-221.95-2.2778c0-2.49-0.22163-2.7009-2.1094-2.0073-1.1602 0.42622-2.2442 1.6782-2.409 2.7823-0.24004 1.6084 0.1792 2.0073 2.1094 2.0073 2.0458 0 2.409-0.41943 2.409-2.7823zm-39.375 0.0791c0-0.45552-1.0547-1.0298-2.3438-1.2762-1.5716-0.30044-2.3438-0.0276-2.3438 0.82821 0 0.73633 0.99153 1.2762 2.3438 1.2762 1.2891 0 2.3438-0.3727 2.3438-0.82821zm8.9062-0.10933c0.34992-0.56618-0.92776-0.9375-3.2259-0.9375-2.0929 0-3.8053 0.42187-3.8053 0.9375 0 0.51562 1.4517 0.9375 3.2259 0.9375 1.7743 0 3.4867-0.42188 3.8053-0.9375zm6.0938 0c0-0.51563-1.0547-0.9375-2.3438-0.9375-1.2891 0-2.3438 0.42187-2.3438 0.9375 0 0.51562 1.0547 0.9375 2.3438 0.9375 1.2891 0 2.3438-0.42188 2.3438-0.9375zm113.26-2.8365c6.1395-3.7431 7.3439-13.179 2.323-18.2-7.9046-7.9046-20.895-2.738-20.895 8.3105 0 9.205 10.513 14.803 18.572 9.8897zm81.65-5.8491c1.3129-0.34332 1.965-1.2676 1.965-2.7852 0-2.2574-0.0389-2.2664-6.3281-1.4789-9.5339 1.1938-10.547 1.5336-10.547 3.5373 0 0.99099-0.42188 2.0625-0.9375 2.3812-0.51563 0.31868-0.9375 1.805-0.9375 3.3028v2.7234l7.41-3.5834c4.0755-1.9709 8.2943-3.8146 9.375-4.0973zm1.0275 4.9356c0-3.3009 0.19697-3.2512-4.8651-1.2258l-3.9656 1.5867 2.7747 1.1835c4.6486 1.9828 6.056 1.6239 6.056-1.5444zm4.2188 0.15625c0-3.0519-1.8292-2.9008-2.1815 0.18029-0.21735 1.9007 0.0553 2.5597 0.9375 2.2656 0.68421-0.22807 1.244-1.3287 1.244-2.4459zm-31.406 0.3125c0-0.77344-0.84375-2.25-1.875-3.2812-1.875-1.875-1.875-1.875-1.875 0.85938 0 2.4402 0.8814 3.5262 3.0469 3.7541 0.38672 0.0407 0.70313-0.55879 0.70313-1.3322zm-131.25-2.3438c0-3.0526-0.50956-3.2852-4.1577-1.8982-2.7509 1.0459-3.1988 3.4282-0.76415 4.0644 4.0835 1.0671 4.9219 0.69814 4.9219-2.1662zm3.7356-1.1165c8e-3 -0.87192-0.40752-1.846-0.92315-2.1647-0.56313-0.34804-0.93177 0.84657-0.92315 2.9915 0.0107 2.6508 0.24853 3.2086 0.92315 2.1647 0.49984-0.77344 0.91525-2.1196 0.92315-2.9915zm121.89 1.2798v-2.6929l-9.1406-0.6053c-5.0273-0.33292-13.254-0.60748-18.281-0.61015l-9.1406-5e-3v-9.375c0-6.8089 0.32076-9.4089 1.1719-9.4989 0.64454-0.0682 8.8711-0.023 18.281 0.10043l17.109 0.22433v-3.0235-3.0235l-17.578 0.1561c-9.668 0.0859-19.688 0.0302-22.266-0.12379l-4.6875-0.27989-0.0442 5.625c-0.0298 3.8034 0.50032 6.5358 1.6371 8.4375 2.0234 3.3848 2.1957 10.255 0.34611 13.801l-1.3306 2.5506 11.415 0.26186c6.278 0.14403 16.161 0.37715 21.961 0.51807l10.547 0.2562v-2.6929zm-140.23 1.1427c1.0768-0.41321 1.4829-1.8442 1.4829-5.225 0-3.9335-0.25457-4.6053-1.6406-4.3297-1.067 0.21216-1.543 1.0266-1.3614 2.3294 0.15359 1.1018-0.16282 2.2764-0.70312 2.6104-1.2084 0.74686-1.3125 5.184-0.12154 5.184 0.47346 0 1.5282-0.25607 2.3438-0.56905zm-33.205-6.4622c0-3.3516-0.34998-6.0938-0.77774-6.0938-1.437 0-12.362 10.468-11.827 11.333 0.29061 0.47022 3.2457 0.85494 6.5668 0.85494h6.0384v-6.0938zm19.022 4.2188c-0.26968-1.0312-0.863-1.875-1.3185-1.875s-0.82816-1.4668-0.82816-3.2596c0-4.596-2.8688-6.2992-9.989-5.9304l-5.4797 0.28382-0.12321 4.6875c-0.21419 8.1488-0.42824 7.9688 9.4736 7.9688 8.2937 0 8.7295-0.0988 8.265-1.875zm247.04-2.9169c0.36922-4.4137-3.174-8.7376-9.6199-11.739-12.471-5.8074-29.602 0.26989-29.926 10.617-0.11098 3.5439-0.0801 3.5751 4.1069 4.144 2.3203 0.31524 11.18 0.52618 19.688 0.46875l15.469-0.10441 0.28322-3.3856zm-277.69-0.0316c0.98226-1.106 3.8277-3.6373 6.3232-5.625 4.3444-3.4603 4.8327-3.614 11.484-3.614h6.9471v-6.0938-6.0938l-6.3281-5e-3c-14.415-0.00897-27.422-1.1865-27.422-2.482 0-0.90593-1.4578-1.263-5.1562-1.263h-5.1562v13.594 13.594h8.7609c7.7784 0 8.9612-0.22554 10.547-2.011zm-21.197-11.817c-0.009654-8.6692-0.31197-12.43-0.92314-11.484-0.49983 0.77344-0.91525 6.293-0.92314 12.266-0.01259 9.5269 0.31756 12.109 1.5481 12.109 0.17188 0 0.30604-5.8008 0.29814-12.891zm81.405 7.8804c0.25095-2.1063-0.0622-2.4898-2.0327-2.4898-4.1185 0-5.2952 0.94891-5.2952 4.27v3.1319l3.5156-1.2111c2.7208-0.93729 3.5827-1.774 3.8123-3.7009zm163.3 2.1196c0-1.8958-0.40329-2.7562-1.1719-2.5-0.64453 0.21485-1.0664 0.67188-0.9375 1.0156 0.12891 0.34375 0.23438 1.4688 0.23438 2.5s0.42187 1.875 0.9375 1.875c0.51562 0 0.9375-1.3008 0.9375-2.8906zm-158.95-1.4736c0.39897-1.5896 0.19778-2.7531-0.55672-3.2194-1.6705-1.0324-2.6773-0.15754-2.6773 2.3264 0 3.9964 2.296 4.6304 3.234 0.89298zm48.771-1.0264c1.0885-5.8806 3.3453-9.5248 7.4061-11.959l3.8706-2.3202-12.422-8e-3c-6.832-5e-3 -12.449 0.0966-12.483 0.22551-0.0336 0.1289-0.27865 4.1367-0.54463 8.9062l-0.4836 8.6719h7.0028 7.0028l0.65073-3.5156zm74.879 2.1551c0.30644-0.79858 0.19971-1.452-0.23717-1.452-0.4369 0-1.2938-1.2058-1.9042-2.6795-0.94034-2.2702-0.82464-3.1874 0.7573-6.004 1.027-1.8284 1.6159-3.5758 1.3087-3.883-0.3072-0.3072-8.8701-0.55854-19.029-0.55854h-18.47l-0.15953 7.4733-0.15954 7.4733 12.458 0.26106c6.8518 0.14359 15.252 0.38711 18.668 0.54116 4.921 0.22194 6.326-0.0214 6.7675-1.1719zm-91.046-7.8382c0.14051-4.2231-0.0609-7.678-0.44765-7.6774-0.38671 6e-4 -0.70312 3.6573-0.70312 8.1261 0 10.17 0.80796 9.8547 1.1508-0.44874zm93.537 1.0508c0-4.8926-0.11425-5.1844-1.3764-3.5156-1.6367 2.1639-1.7948 4.554-0.46558 7.0377 1.5169 2.8343 1.842 2.2127 1.842-3.5221zm19.688 3.8953c7.853-1.0292 8.4375-1.2774 8.4375-3.583 0-2.0115-0.59935-2.2641-7.9748-3.3614-4.3861-0.65255-8.6049-0.94465-9.375-0.64913-0.96376 0.36983-1.4002 1.8941-1.4002 4.8898v4.3525l3.0469-0.54795c1.6758-0.30138 4.9453-0.79677 7.2656-1.1009zm-235.31-6.9973c0-5.9375-0.17857-6.5625-1.875-6.5625s-1.875 0.625-1.875 6.5625 0.17857 6.5625 1.875 6.5625 1.875-0.625 1.875-6.5625zm56.25 1.0378c0-4.046-0.37638-5.6691-1.4062-6.0643-0.77344-0.29679-1.4062-1.3966-1.4062-2.444 0-1.0474-0.52734-1.9009-1.1719-1.8966-0.78285 6e-3 -1.2541 1.9256-1.4195 5.7848-0.20825 4.8578 0.0788 6.1244 1.804 7.9609 1.1284 1.2012 2.4 2.1839 2.8258 2.1839s0.77408-2.4861 0.77408-5.5247zm14.826 4.7143c0.79658-0.50515 1.1283-2.2413 0.9375-4.9075-0.266-3.7178-0.55019-4.1552-2.8733-4.4225-2.5393-0.29218-2.5781-0.21797-2.5781 4.9219 0 4.3505 0.2729 5.2161 1.6406 5.2042 0.90234-7e-3 2.1953-0.36612 2.8733-0.79604zm177.36-2.0021c0-1.0417-0.625-1.875-1.4062-1.875s-1.4062 0.83333-1.4062 1.875 0.625 1.875 1.4062 1.875 1.4062-0.83333 1.4062-1.875zm-163.59-2.3438c0-2.5733-0.29903-2.8372-3.5156-3.1035-3.4688-0.28708-3.5156-0.24571-3.5156 3.1035s0.0469 3.3906 3.5156 3.1035c3.2166-0.26622 3.5156-0.5302 3.5156-3.1035zm4.6875-0.0128c0-2.6232-2.7459-2.3325-3.123 0.33061-0.24079 1.7005 0.0749 2.1186 1.4062 1.8622 0.97685-0.18813 1.7168-1.1332 1.7168-2.1928zm-99.844-1.3934c0-2.7841-0.05209-2.8125-5.1562-2.8125-5.1042 0-5.1562 0.0284-5.1562 2.8125 0 2.7841 0.05209 2.8125 5.1562 2.8125 5.1042 0 5.1562-0.0284 5.1562-2.8125zm-13.125 0c0-0.51563-0.42188-0.9375-0.9375-0.9375s-0.9375 0.42187-0.9375 0.9375c0 0.51562 0.42188 0.9375 0.9375 0.9375s0.9375-0.42188 0.9375-0.9375zm271.88-3.2812c0-1.8047-0.42188-3.2812-0.9375-3.2812-0.51563 0-0.9375 1.4766-0.9375 3.2812s0.42187 3.2812 0.9375 3.2812c0.51562 0 0.9375-1.4766 0.9375-3.2812zm-4.6875-1.2925c0-3.1085-0.37419-3.776-2.5781-4.5988-1.418-0.52939-5.3203-2.0167-8.6719-3.3052l-6.0938-2.3426-0.47709 2.9571c-0.2624 1.6264-0.15693 3.0977 0.23437 3.2696 0.39131 0.17188 0.71147 1.4936 0.71147 2.9372 0 2.5246 0.2415 2.6599 6.3281 3.5446 10.902 1.5846 10.547 1.6674 10.547-2.4618zm-154.07 1.2327c0.62919-1.6396-1.0703-6.034-2.3336-6.034-0.87328 0-1.2953 5.4884-0.51868 6.7451 0.76169 1.2324 2.2488 0.86169 2.8523-0.71111zm-4.3714-3.2693c0-3.4475-0.29987-3.9231-3.2511-5.1562-1.7881-0.74712-3.4756-1.3584-3.75-1.3584-0.72812 0-0.61158 8.9498 0.12614 9.6875 0.34375 0.34375 2.0312 0.625 3.75 0.625 3.0274 0 3.125-0.11862 3.125-3.7978zm77.989 0.75096c0.51867-2.7722-0.64988-7.3534-1.375-5.3906-1.0803 2.9243-1.5571 6.3065-0.97153 6.8921 1.1354 1.1354 1.9508 0.61372 2.3465-1.5014zm-91.114-4.4531c0-3.0938-0.31641-5.6308-0.70312-5.6378-0.38672-8e-3 -1.6524-0.26718-2.8125-0.5781-1.8298-0.49036-2.108-0.20908-2.0991 2.1222 6e-3 1.4781 0.27181 4.2695 0.59141 6.2031 0.48095 2.9097 0.9639 3.5156 2.8022 3.5156 2.0897 0 2.2211-0.33284 2.2211-5.625zm141.09 2.8059c-0.32091-0.51927 0.076-1.1972 0.88218-1.5066 0.80612-0.30934 1.4657-1.5868 1.4657-2.8389 0-1.9859-0.23928-2.1484-1.875-1.273-1.9914 1.0658-2.7303 6.5625-0.88217 6.5625 0.54606 0 0.73025-0.42486 0.40932-0.94412zm36.622-4.4697c-0.3052-0.3052-1.0044-0.10543-1.5538 0.44394-0.70679 0.70679-0.63369 1.5902 0.25001 3.0214 1.2434 2.0136 1.2502 2.0117 1.5538-0.44392 0.16771-1.3566 0.0552-2.7162-0.24999-3.0214zm-6.1487 0.45701c0-0.70772-1.2601-1.265-3.0469-1.3475l-3.0469-0.14063 2.8125 1.3052c3.5066 1.6273 3.2812 1.6147 3.2812 0.18292zm-188.53-0.13684c-0.86833-0.86833-37.406-1.3327-37.406-0.47544 0 0.52134 7.7262 0.88161 18.906 0.88161 10.398 0 18.723-0.18278 18.5-0.40617zm149.16-3.3198c-0.77344-0.51307-5.2031-0.89727-9.8438-0.85377-10.214 0.0958-7.2413 1.3821 3.75 1.6226 5.2454 0.11476 7.0773-0.11634 6.0938-0.76878zm7.585 0.0483c-0.72667-0.46003-1.8868-0.61937-2.5781-0.3541-1.9825 0.76075-1.4784 1.2204 1.3212 1.2049 1.8763-0.0104 2.2185-0.24205 1.2569-0.85076zm21.477-3.8224c0-3.3322-0.2504-3.75-2.2476-3.75-1.9391 0-2.2286 0.41819-2.1094 3.0469 0.25788 5.6843 4.357 6.3458 4.357 0.70312zm9.3452 3.0469c-0.0633-1.4928-2.577-3.9526-4.9685-4.8618-2.4132-0.9175-2.5017-0.83585-2.5017 2.3069 0 3.1761 0.0944 3.258 3.75 3.258 2.0625 0 3.7366-0.31641 3.7202-0.70313zm2.2863-2.3438c-1.4799-2.6014-3.566-4.4511-4.9799-4.4156-0.94659 0.0237-0.59003 0.52941 0.97165 1.3779 1.3568 0.73723 2.7147 1.986 3.0174 2.775 0.30278 0.789 0.79957 1.4346 1.104 1.4346 0.30443 0 0.2535-0.52734-0.11317-1.1719zm-40.175-0.78481c0.34643-0.56054 1.426-0.81097 2.3991-0.55651 1.1146 0.29147 1.7692-0.0252 1.7692-0.85583 0-0.72516 0.63281-1.3185 1.4062-1.3185s1.4062-0.47555 1.4062-1.0568c0-0.74144-1.4686-0.84153-4.9219-0.33543-2.707 0.39674-8.5843 0.76682-13.06 0.82241-7.6581 0.0951-8.1624 0.22561-8.5419 2.2104-0.39706 2.0771-0.25543 2.1094 9.2552 2.1094 5.9437 0 9.9007-0.39199 10.288-1.0192zm-21.318-2.4964c-0.39365-2.0781-6.3892-2.9402-6.3892-0.91878 0 1.9484 0.94899 2.5594 3.975 2.5594 2.0886 0 2.6524-0.38314 2.4142-1.6406zm17.048-2.0588c1.5433-0.46094-0.85793-0.844-7.0312-1.1216-5.1562-0.2319-9.5267-0.32077-9.7122-0.19749s1.0802 0.63201 2.8125 1.1305c3.7374 1.0755 10.648 1.1691 13.931 0.18861zm21.785-5.5668c-0.36272-3.7749-0.0917-4.9269 1.5439-6.5625 1.0911-1.0911 1.9838-2.9446 1.9838-4.119 0-1.1743 0.61067-3.007 1.357-4.0726 1.3263-1.8935 1.2203-1.9419-4.677-2.1328-4.5974-0.14883-5.9402 0.09538-5.6402 1.0257 0.2166 0.67159 1.302 5.221 2.4119 10.11 1.8894 8.3218 2.5085 10.33 3.1846 10.33 0.15169 0 0.0778-2.0604-0.16415-4.5787zm6.5746 3.9578c-0.64453-0.26007-1.6992-0.26007-2.3438 0-0.64453 0.26007-0.11718 0.47287 1.1719 0.47287s1.8164-0.2128 1.1719-0.47287zm-48.047-1.7229c0-0.9375-0.9375-1.4062-2.8125-1.4062-2.688 0-3.5315 0.84353-2.1875 2.1875 1.2272 1.2272 5 0.63771 5-0.78125zm37.5-2.8125c0-1.2891-0.36338-2.3438-0.8075-2.3438s-0.60588 1.0547-0.35945 2.3438c0.24642 1.2891 0.60978 2.3438 0.80749 2.3438 0.1977 0 0.35946-1.0547 0.35946-2.3438zm12 1.2188c0.61875-0.61875 1.125-1.9124 1.125-2.8748 0-1.3558-0.58055-1.683-2.5781-1.4531-2.025 0.23299-2.6418 0.84979-2.8748 2.8748-0.22985 1.9976 0.0974 2.5781 1.4531 2.5781 0.96237 0 2.256-0.50625 2.8748-1.125zm7.8633 0.48458c-0.67676-0.27081-1.4854-0.23751-1.7969 0.074-0.31152 0.31153 0.2422 0.5331 1.2305 0.4924 1.0921-0.045 1.3143-0.26713 0.56641-0.5664zm-41.681-0.98127c-1.9451-0.20294-4.8982-0.19953-6.5625 8e-3 -1.6643 0.20711-0.0728 0.37316 3.5365 0.36899 3.6094-4e-3 4.9711-0.1736 3.026-0.37655zm13.615-2.0637c0.38672-0.0355 0.70313-0.6364 0.70313-1.3353 0-1.5894-8.3666-2.4634-23.672-2.4726-10.344-7e-3 -11.016 0.10609-11.016 1.8439 0 1.7502 0.77528 1.8646 14.297 2.1094 12.347 0.22349 15.963 0.19679 19.688-0.14536zm28.828-0.53334c0-0.77344-0.63281-1.4062-1.4062-1.4062s-1.4062 0.63281-1.4062 1.4062 0.63281 1.4062 1.4062 1.4062 1.4062-0.63281 1.4062-1.4062zm8.4375 0c0-0.875-0.88541-1.4062-2.3438-1.4062s-2.3438 0.53125-2.3438 1.4062 0.88541 1.4062 2.3438 1.4062 2.3438-0.53125 2.3438-1.4062zm6.9871 0.31826c1.3133-0.59838 2.3879-1.6531 2.3879-2.3438 0-0.69066 0.53166-1.2558 1.1815-1.2558s2.3722-1.1041 3.8276-2.4536c1.9576-1.8152 2.3722-2.7276 1.5932-3.5067-0.779-0.779-2.0487-7e-3 -4.8797 2.9688-2.1047 2.212-5.0408 4.2646-6.5246 4.5613-1.4838 0.29676-2.6979 1.1196-2.6979 1.8286 0 1.5752 1.9298 1.6511 5.1121 0.20107zm-39.37-12.74c-2.5039-11.806-5.3208-22.074-4.6936-17.109 0.40171 3.1804 4.8702 23.649 5.6794 26.016 0.22038 0.64453 0.56966 1.1719 0.77615 1.1719 0.2065 0-0.58638-4.5352-1.762-10.078zm-31.736 6.7202c-0.31298-0.8156-0.56905-2.307-0.56905-3.3142 0-1.4637-0.33415-1.6525-1.6648-0.94032-1.0561 0.56523-2.2558 0.56025-3.2812-0.0136-1.3965-0.78154-1.6164-0.45191-1.6164 2.4232 0 3.2719 0.0647 3.3278 3.8503 3.3278 3.1258 0 3.7432-0.27904 3.2812-1.4829zm27.556-1.9131c0-2.8625-0.21385-3.2186-1.3613-2.2663-0.7487 0.62137-2.1755 0.87131-3.1707 0.55545-1.4681-0.46597-1.8881-0.0384-2.2264 2.2663-0.40218 2.7402-0.29016 2.8406 3.1707 2.8406 3.4982 0 3.5876-0.0846 3.5876-3.396zm27.18-1.0571c8e-3 -2.3062-1.7651-2.732-4.7418-1.1389-1.9998 1.0703-2.4578 4.2835-0.69435 4.8713 2.1194 0.70645 5.4286-1.5656 5.4362-3.7324zm3.7573 0.70312c0-1.5469-0.3966-2.8125-0.88133-2.8125-0.67622 0-0.79723 4.0002-0.16306 5.3906 0.4934 1.0818 1.0444-0.27831 1.0444-2.5781zm4.6875 1.875c0-0.51562-0.63281-0.9375-1.4062-0.9375s-1.4062 0.42188-1.4062 0.9375c0 0.51563 0.63281 0.9375 1.4062 0.9375s1.4062-0.42187 1.4062-0.9375zm-44.062-3.75v-3.75h-8.9062-8.9062v3.125c0 1.7188 0.28125 3.4062 0.625 3.75s4.3516 0.625 8.9062 0.625h8.2812v-3.75zm54.375 2.3438c1.0053-1.2113 0.63137-1.4062-2.6977-1.4062-4.1023 0-5.3005 1.4681-1.7554 2.1509 1.1602 0.22345 2.3741 0.46373 2.6977 0.53395 0.32358 0.0702 1.1135-0.50514 1.7554-1.2786zm17.236-2.7795c1.6371-2.4985 1.9554-4.2517 0.7719-4.2517-0.4082 0-1.4114 1.4766-2.2294 3.2812-1.7101 3.7729-0.78313 4.3902 1.4575 0.97048zm-41.611-2.555c0-0.45385-0.84375-0.37362-1.875 0.17828s-1.875 1.6868-1.875 2.522c0 1.3403 0.22008 1.3194 1.875-0.17828 1.0312-0.93327 1.875-2.0682 1.875-2.522zm14.062 2.522c0-0.77344-0.63281-1.4062-1.4062-1.4062-1.464 0-1.86 1.1088-0.78125 2.1875s2.1875 0.68272 2.1875-0.78125zm14.409-2.5781c0.31092-1.1602 0.57106-2.3844 0.5781-2.7204 8e-3 -0.33609-2.4774-0.90009-5.5209-1.2533-4.408-0.51161-6.0286-0.31793-7.967 0.95211-1.4741 0.96586-3.5527 1.4301-5.2728 1.1776-1.7393-0.25528-2.7117-0.03328-2.5096 0.573 0.18145 0.54436 1.9943 0.86958 4.0286 0.72269 2.0364-0.14703 4.9542 0.38758 6.4922 1.1896 1.5364 0.80113 4.3263 1.4592 6.1998 1.4624 2.7425 5e-3 3.5164-0.4053 3.9716-2.1036zm7.4226-0.80894c-1.5823-1.5823-3.4626-0.0765-2.0419 1.6353 0.78451 0.94528 1.43 1.0633 2.108 0.38528 0.67797-0.67797 0.65774-1.2967-0.0661-2.0205zm-31.031 0.4029c-0.67676-0.27082-1.4854-0.23752-1.7969 0.07397-0.31152 0.31153 0.2422 0.5331 1.2305 0.49239 1.0921-0.045 1.3143-0.26713 0.56641-0.5664zm-53.613-1.7587c0-0.22738-0.65771-0.41342-1.4616-0.41342s-1.1966 0.42876-0.87272 0.95279c0.53513 0.86586 2.3343 0.45014 2.3343-0.53937zm-5.625-3.3262c0-0.97608-0.63281-1.7747-1.4062-1.7747-0.87023 0-1.4062 0.88215-1.4062 2.3143 0 1.672 0.39029 2.1646 1.4062 1.7747 0.77344-0.2968 1.4062-1.3382 1.4062-2.3143zm32.441-0.58329c-0.31152-0.31152-0.5331 0.24219-0.49239 1.2305 0.045 1.0921 0.26713 1.3143 0.5664 0.56641 0.27081-0.67676 0.23751-1.4854-0.074-1.7969zm11.845 1.8955c-1.1662-0.22424-2.8537-0.21573-3.75 0.01894-0.89633 0.23465 0.0579 0.41812 2.1203 0.40772 2.0625-0.01041 2.7959-0.2024 1.6297-0.42664zm9.1058-6.8185c-0.56212-0.9594-0.81271 0.10621-0.76729 3.2628 0.065 4.5157 0.0956 4.5679 0.83475 1.4247 0.42562-1.8099 0.39558-3.8972-0.0675-4.6875zm-47.767 1.3097c0-6.8843-2.2213-6.5578-2.6271 0.38619-0.2267 3.8787 7e-3 4.8482 1.1719 4.8482 1.1416 0 1.4552-1.1283 1.4552-5.2344zm10.312 0.07812v-5.1562h-4.2188-4.2188v5.1562 5.1562h4.2188 4.2188v-5.1562zm-36.387 3.5783c-0.67676-0.27082-1.4854-0.23751-1.7969 0.07402-0.31152 0.31152 0.2422 0.5331 1.2305 0.49239 1.0921-0.04498 1.3143-0.26713 0.56641-0.56641zm45.762-1.2346c0-1.0417-0.625-1.875-1.4062-1.875s-1.4062 0.83333-1.4062 1.875 0.625 1.875 1.4062 1.875 1.4062-0.83333 1.4062-1.875zm41.719 0c0-0.6875-0.52734-1.4258-1.1719-1.6406-0.69711-0.23237-1.1719 0.43229-1.1719 1.6406s0.47476 1.873 1.1719 1.6406c0.64454-0.21484 1.1719-0.95312 1.1719-1.6406zm15.294 0.23438c-0.24242-1.2751-1.4362-1.7048-5.3589-1.9286-2.7758-0.15841-5.4562 0.12124-5.9564 0.62144-1.8192 1.8192 0.47361 2.9478 5.9888 2.9478 4.8637 0 5.5956-0.22541 5.3265-1.6406zm14.706 0.23438c0-0.51562-2.8477-1.0622-6.3281-1.2147-5.8186-0.25489-7.3894 0.3097-5.6635 2.0356 1.0063 1.0063 11.992 0.25433 11.992-0.8209zm-105-0.46875c0.35597-0.57596-0.97845-0.88991-3.4603-0.81409l-4.0397 0.12341 3.2812 0.69067c1.8047 0.37987 3.3618 0.74621 3.4603 0.81409 0.0985 0.06788 0.43978-0.29846 0.75846-0.81409zm56.923-0.14382c0.45737-1.3721-3.5932-5.4812-5.403-5.4812-0.75 0-1.3636 0.63281-1.3636 1.4062 0 0.77344-0.63281 1.4062-1.4062 1.4062-0.78125 0-1.4062 0.83333-1.4062 1.875 0 1.6208 0.625 1.875 4.6094 1.875 2.6483 0 4.7627-0.46005 4.9698-1.0813zm-74.918-1.1249c0.63367-1.6513-6.6806-2.0677-41.302-2.3512-19.624-0.16068-22.734 0.0054-22.734 1.2142 0 1.587 2.8459 1.7417 40.896 2.223 19.17 0.24247 22.694 0.07704 23.141-1.086zm8.7177-1.2899c-0.31153-0.31152-0.5331 0.24219-0.49239 1.2305 0.045 1.0921 0.26713 1.3143 0.5664 0.56641 0.27081-0.67676 0.23751-1.4854-0.074-1.7969zm-2.4414 0.21484c0-0.77344-0.63281-1.4062-1.4062-1.4062s-1.4062 0.63281-1.4062 1.4062c0 0.77344 0.63281 1.4062 1.4062 1.4062s1.4062-0.63281 1.4062-1.4062zm19.688-1.4062c0-1.0417-0.625-1.875-1.4062-1.875s-1.4062 0.83333-1.4062 1.875 0.625 1.875 1.4062 1.875 1.4062-0.83333 1.4062-1.875zm19.688 0c2.3636-2.3636 6.0318-2.4057 8.3419-0.09558 1.7476 1.7476 1.7908 1.5084 2.4163-13.359 0.35027-8.3263 0.49875-18.725 0.32995-23.108l-0.30692-7.9688-12.656-0.46445-0.18926 17.576c-0.10409 9.6668-0.22136 20.213-0.26062 23.435-0.0393 3.2227 0.0459 5.8594 0.18926 5.8594 0.14334 0 1.1044-0.84375 2.1356-1.875zm18.17-3.5695c0.2573-0.41634 0.74915-2.8776 1.093-5.4695 0.60849-4.587 0.54195-4.7652-2.4973-6.6895-1.7173-1.0873-3.2753-1.8241-3.4622-1.6372-0.18686 0.18686 0.37175 3.5378 1.2414 7.4465 1.4609 6.5663 2.4358 8.274 3.6251 6.3498zm-32.701-2.993c0.31868-0.51562-0.0783-0.9375-0.88217-0.9375s-1.4616 0.42188-1.4616 0.9375 0.39697 0.9375 0.88217 0.9375c0.48519 0 1.1429-0.42188 1.4616-0.9375zm7.9688 0c0-0.51562-1.0547-0.9375-2.3438-0.9375s-2.3438 0.42188-2.3438 0.9375 1.0547 0.9375 2.3438 0.9375 2.3438-0.42188 2.3438-0.9375zm2.5614-10.547c-0.19738-2.1914-0.35888-0.39844-0.35888 3.9844 0 4.3828 0.1615 6.1758 0.35888 3.9844 0.19737-2.1914 0.19737-5.7773 0-7.9688zm30.485 10.823c-1.1602-0.22346-3.0586-0.22346-4.2188 0-1.1602 0.22346-0.21093 0.40628 2.1094 0.40628s3.2695-0.18283 2.1094-0.40628zm-33.984-9.1821v-6.0938h-3.2812-3.2812v4.9688c0 5.4241 1.0954 7.2188 4.4062 7.2188 2.0288 0 2.1562-0.36005 2.1562-6.0938zm34.688 3.2812c0-0.51562-1.0547-0.9375-2.3438-0.9375s-2.3438 0.42188-2.3438 0.9375 1.0547 0.9375 2.3438 0.9375 2.3438-0.42188 2.3438-0.9375zm2.0483-4.5773c6.3369-2.4154 9.9635-10.98 7.0418-16.63-5.8635-11.339-22.43-8.811-23.833 3.6365-0.6284 5.5752 1.4289 9.3169 6.5039 11.829 4.3622 2.1592 6.9177 2.4484 10.287 1.1641zm-33.928-16.039c0.60043-1.1219 0.89391-6.6352 0.7361-13.828l-0.26245-11.962-6.0938-0.58755-0.0717 4.9813c-0.0394 2.7397-0.27665 8.5536-0.52716 12.92-0.39107 6.8158-0.223 8.1086 1.1884 9.1406 2.324 1.6994 3.8754 1.4947 5.0306-0.66382zm14.536-14.072c-0.31868-0.51562-2.8748-0.9375-5.6803-0.9375-2.8055 0-5.1009 0.42188-5.1009 0.9375 0 0.52185 2.5184 0.9375 5.6803 0.9375 3.5482 0 5.4628-0.3519 5.1009-0.9375zm-6.0938-7.1932v-5.1131l-3.0469 0.29377c-2.998 0.28906-3.0513 0.37728-3.3226 5.501l-0.27568 5.2072 6.6451-0.77578v-5.1131z"/>
</svg>
